<svg xmlns="http://www.w3.org/2000/svg" width="27.602" height="30" viewBox="0 0 27.602 30"><g transform="translate(0 0)"><path d="M24.99,20.442h0c-.863,0-1.35-.448-1.629-1.5a19.281,19.281,0,0,1-.3-4.271A27.641,27.641,0,0,0,22.533,8.4a.446.446,0,0,0-.866.212,26.971,26.971,0,0,1,.5,6.067,19.748,19.748,0,0,0,.334,4.495,3.58,3.58,0,0,0,.586,1.267H4.518A3.58,3.58,0,0,0,5.1,19.175a19.735,19.735,0,0,0,.334-4.495c.016-2.6.034-5.55,1.1-7.806C7.734,4.335,10.111,3.1,13.8,3.1A9.494,9.494,0,0,1,18.73,4.232a5.98,5.98,0,0,1,2.421,2.83.446.446,0,0,0,.816-.358,6.935,6.935,0,0,0-2.776-3.235,8.456,8.456,0,0,0-2.744-1.02,2.654,2.654,0,0,0-5.291,0A8.536,8.536,0,0,0,8.521,3.4,6.871,6.871,0,0,0,5.73,6.494c-1.148,2.434-1.167,5.487-1.183,8.181a19.267,19.267,0,0,1-.3,4.271c-.279,1.048-.766,1.5-1.629,1.5h0a2.612,2.612,0,0,0,0,5.225h2.82a.446.446,0,1,0,0-.891H2.612a1.721,1.721,0,0,1,0-3.442H24.99a1.721,1.721,0,0,1,0,3.442H7.215a.446.446,0,0,0,0,.891H9.044a4.778,4.778,0,0,0,9.515,0H24.99a2.612,2.612,0,0,0,0-5.225ZM13.8.891A1.766,1.766,0,0,1,15.53,2.307a15.283,15.283,0,0,0-3.457,0A1.766,1.766,0,0,1,13.8.891Zm0,28.218a3.893,3.893,0,0,1-3.862-3.442h7.723A3.893,3.893,0,0,1,13.8,29.109Zm0,0" transform="translate(0)"/></g></svg>